<?xml version="1.0" encoding="utf-8"?>
<!-- Generator: Adobe Illustrator 21.1.0, SVG Export Plug-In . SVG Version: 6.00 Build 0)  -->
<svg version="1.1" id="Calque_1" xmlns="http://www.w3.org/2000/svg" xmlns:xlink="http://www.w3.org/1999/xlink" x="0px" y="0px"
	 viewBox="0 0 248 100" style="enable-background:new 0 0 248 100;" xml:space="preserve">
<style type="text/css">
	.st0{fill:#172459;}
	.st1{fill:#272F64;}
	.st2{fill:#E6352B;}
</style>
<g>
	<g>
		<g>
			<g>
				<path class="st0" d="M28.9,31.5h3.3v-7.3c0-0.9-0.7-1.7-1.7-1.7l0,0c-0.9,0-1.7,0.7-1.7,1.7V31.5z"/>
				<path class="st0" d="M21.9,31.5h3.3v-7.3c0-0.9-0.7-1.7-1.7-1.7l0,0c-0.9,0-1.7,0.7-1.7,1.7V31.5z"/>
				<path class="st0" d="M35.9,31.5h3.3v-7.3c0-0.9-0.7-1.7-1.7-1.7l0,0c-0.9,0-1.7,0.7-1.7,1.7V31.5z"/>
			</g>
		</g>
		<g>
			<g>
				<path class="st0" d="M31.4,4.5c2.2,0.4,3.1,2.3,3.1,3.7v2.8h2v1.6c5.3,2.5,9.1,8.1,9.1,13.8c0,0,0,0.1,0,0.1v4.9h12.3v-5h0
					C57.6,10.3,46.1,0.5,31,0.3L31.4,4.5z"/>
				<path class="st1" d="M31.4,4.5c2.2,0.4,3.1,2.3,3.1,3.7v2.8h2v1.6c5.3,2.5,9.1,8.1,9.1,13.8c0,0,0,0.1,0,0.1v4.9h12.3v-5h0
					C57.6,10.3,46.1,0.5,31,0.3L31.4,4.5z"/>
			</g>
			<g>
				<path class="st0" d="M29.1,8.2v2.9h3V8.2c0-0.8-0.7-1.5-1.5-1.5C29.7,6.7,29.1,7.3,29.1,8.2z"/>
				<path class="st1" d="M29.1,8.2v2.9h3V8.2c0-0.8-0.7-1.5-1.5-1.5C29.7,6.7,29.1,7.3,29.1,8.2z"/>
			</g>
			<g>
				<path class="st0" d="M32.8,39.3c-12.7-3.2-17.4-6-17.4-14.1c0-5.8,3.8-10.7,9.3-12.9v-1.3h2V8.2c0-1.4,0.9-3.4,3.1-3.7l0.4-4.2
					C15,0.4,2,11,2.6,25.3c0.7,16,18.2,20.4,27.6,22.4c7.4,1.6,25.3,5.8,29.7,18.3C59.9,66.1,61.6,45.3,32.8,39.3z"/>
				<path class="st1" d="M32.8,39.3c-12.7-3.2-17.4-6-17.4-14.1c0-5.8,3.8-10.7,9.3-12.9v-1.3h2V8.2c0-1.4,0.9-3.4,3.1-3.7l0.4-4.2
					C15,0.4,2,11,2.6,25.3c0.7,16,18.2,20.4,27.6,22.4c7.4,1.6,25.3,5.8,29.7,18.3C59.9,66.1,61.6,45.3,32.8,39.3z"/>
			</g>
		</g>
		<g>
			<path class="st0" d="M28.6,61.5c12.8,3.9,16.1,8.6,16.1,15.4c0,10.3-8,14.5-17.9,14.5c-9.6,0-17.8-4.5-23.3-10.2c0,0-2,4.2-2,4.2
				c4,7.6,15.3,14.5,28,14.5c0,0,0,0,0,0c0,0,0,0,0,0v0c16.2,0.1,29.9-7.4,29.9-22.7c0-16.4-17.8-22.8-27.7-25
				c-7.8-1.7-27.4-6.9-30.9-17.9C0.7,34.4-3.2,53.4,28.6,61.5z"/>
			<path class="st1" d="M28.6,61.5c12.8,3.9,16.1,8.6,16.1,15.4c0,10.3-8,14.5-17.9,14.5c-9.6,0-17.8-4.5-23.3-10.2c0,0-2,4.2-2,4.2
				c4,7.6,15.3,14.5,28,14.5c0,0,0,0,0,0c0,0,0,0,0,0v0c16.2,0.1,29.9-7.4,29.9-22.7c0-16.4-17.8-22.8-27.7-25
				c-7.8-1.7-27.4-6.9-30.9-17.9C0.7,34.4-3.2,53.4,28.6,61.5z"/>
		</g>
	</g>
	<g>
		<path class="st2" d="M77.8,23.1c0,0,2.2,2,5,2c1.5,0,2.9-0.8,2.9-2.3c0-3.5-9.5-2.9-9.5-8.8c0-3.2,2.9-5.6,6.8-5.6
			c4,0,6,2.1,6,2.1l-1.6,2.9c0,0-1.9-1.7-4.5-1.7c-1.7,0-3,1-3,2.3c0,3.4,9.5,2.6,9.5,8.8c0,3.1-2.4,5.7-6.6,5.7c-4.5,0-7-2.6-7-2.6
			L77.8,23.1z"/>
		<path class="st2" d="M104.9,8.4c5.9,0,10.4,4.3,10.4,9.9c0,5.7-4.5,10.1-10.4,10.1c-5.9,0-10.4-4.4-10.4-10.1
			C94.5,12.7,99,8.4,104.9,8.4z M104.9,25.2c3.7,0,6.6-2.9,6.6-6.9c0-3.8-3-6.7-6.6-6.7c-3.7,0-6.6,2.8-6.6,6.7
			C98.2,22.3,101.2,25.2,104.9,25.2z"/>
		<path class="st2" d="M121.2,8.7h6.5c2.2,0,3.2,0.2,4.1,0.5c2,0.9,3.3,2.7,3.3,5.3c0,2.3-1.3,4.5-3.4,5.3v0.1c0,0,0.3,0.3,0.7,1
			l4.1,7.2h-4.1l-4-7.2h-3.5v7.2h-3.7V8.7z M128.2,17.8c2,0,3.2-1.1,3.2-3.1c0-1.9-0.8-3-3.7-3h-2.8v6.1H128.2z"/>
		<path class="st2" d="M141.7,8.7h7.2c3.6,0,6.2,1.8,6.2,5c0,1.8-0.9,3.4-2.4,4.1v0.1c2.2,0.6,3.3,2.6,3.3,4.6c0,3.9-3.2,5.6-7,5.6
			h-7.3V8.7z M148.9,16.6c1.6,0,2.5-1.1,2.5-2.5c0-1.4-0.9-2.4-2.6-2.4h-3.5v4.9H148.9z M149.3,25.1c1.9,0,2.9-1.2,2.9-2.8
			c0-1.6-1.1-2.8-2.9-2.8h-3.9v5.6H149.3z"/>
		<path class="st2" d="M171.1,8.4c5.9,0,10.4,4.3,10.4,9.9c0,5.7-4.5,10.1-10.4,10.1c-5.9,0-10.4-4.4-10.4-10.1
			C160.7,12.7,165.2,8.4,171.1,8.4z M171.1,25.2c3.7,0,6.6-2.9,6.6-6.9c0-3.8-3-6.7-6.6-6.7c-3.7,0-6.6,2.8-6.6,6.7
			C164.5,22.3,167.4,25.2,171.1,25.2z"/>
		<path class="st2" d="M187.8,8.7h3.7l7.6,11.2c0.8,1.1,1.7,3,1.7,3h0.1c0,0-0.2-1.9-0.2-3V8.7h3.6v19.4h-3.6L193,16.9
			c-0.8-1.1-1.7-3-1.7-3h-0.1c0,0,0.2,1.9,0.2,3v11.2h-3.7V8.7z"/>
		<path class="st2" d="M211.6,8.7h3.7l7.6,11.2c0.8,1.1,1.7,3,1.7,3h0.1c0,0-0.2-1.9-0.2-3V8.7h3.6v19.4h-3.6l-7.6-11.2
			c-0.8-1.1-1.7-3-1.7-3H215c0,0,0.2,1.9,0.2,3v11.2h-3.7V8.7z"/>
		<path class="st2" d="M235.3,8.7h12.1v3H239v5.1h6.8v3H239v5.2h8.9v3h-12.5V8.7z"/>
	</g>
	<path class="st2" d="M76.1,36.6h3.7v12.5c0,2.6,1.8,4.1,4.5,4.1s4.5-1.5,4.5-4.1V36.6h3.7v12.5c0,4.4-3.3,7.4-8.2,7.4
		c-4.9,0-8.2-3-8.2-7.4V36.6z"/>
	<path class="st2" d="M98.7,36.8h3.7L110,48c0.8,1.1,1.7,3,1.7,3h0.1c0,0-0.2-1.9-0.2-3V36.8h3.6v19.4h-3.6L103.9,45
		c-0.8-1.1-1.7-3-1.7-3h-0.1c0,0,0.2,1.9,0.2,3v11.2h-3.7V36.8z"/>
	<path class="st2" d="M121.7,36.8h3.7v19.4h-3.7V36.8z"/>
	<path class="st2" d="M129.3,36.8h3.9l4.4,12.6c0.4,1.1,0.7,2.8,0.7,2.8h0.1c0,0,0.4-1.7,0.8-2.8l4.5-12.6h3.9l-7.4,19.4h-3.6
		L129.3,36.8z"/>
	<path class="st2" d="M151.6,36.8h12.1v3h-8.4v5.1h6.8v3h-6.8v5.2h8.9v3h-12.5V36.8z"/>
	<path class="st2" d="M169.3,36.8h6.5c2.2,0,3.2,0.2,4.1,0.5c2,0.9,3.3,2.7,3.3,5.3c0,2.3-1.3,4.5-3.4,5.3V48c0,0,0.3,0.3,0.7,1
		l4.1,7.2h-4.1l-4-7.2H173v7.2h-3.7V36.8z M176.3,45.9c2,0,3.2-1.1,3.2-3.1c0-1.9-0.8-3-3.7-3H173v6.1H176.3z"/>
	<path class="st2" d="M189.9,51.2c0,0,2.2,2,5,2c1.5,0,2.9-0.8,2.9-2.3c0-3.5-9.5-2.9-9.5-8.8c0-3.2,2.9-5.6,6.8-5.6
		c4,0,6,2.1,6,2.1l-1.6,2.9c0,0-1.9-1.7-4.5-1.7c-1.7,0-3,1-3,2.3c0,3.4,9.5,2.6,9.5,8.8c0,3.1-2.4,5.7-6.6,5.7c-4.5,0-7-2.6-7-2.6
		L189.9,51.2z"/>
	<path class="st2" d="M206.6,36.8h3.7v19.4h-3.7V36.8z"/>
	<path class="st2" d="M221,39.8h-6.6v-3h16.9v3h-6.6v16.3H221V39.8z"/>
	<path class="st2" d="M235.4,36.8h12.1v3H239v5.1h6.8v3H239v5.2h8.9v3h-12.5V36.8z M242.3,31.8h3.7l-3,3.7h-2.9L242.3,31.8z"/>
	<g>
		<path class="st0" d="M80.6,69c2,0,3,1.1,3,1.1l-0.7,1.1c0,0-0.9-0.9-2.2-0.9c-1.7,0-2.7,1.3-2.7,2.8c0,1.5,1,2.9,2.7,2.9
			c1.4,0,2.3-1,2.3-1l0.8,1.1c0,0-1.1,1.3-3.2,1.3c-2.5,0-4.2-1.8-4.2-4.2C76.5,70.8,78.2,69,80.6,69z"/>
		<path class="st0" d="M87.6,69.2h2.6c0.9,0,1.3,0.1,1.6,0.2c0.8,0.4,1.3,1.1,1.3,2.2c0,1-0.5,1.9-1.4,2.2v0c0,0,0.1,0.1,0.3,0.4
			l1.7,3h-1.6l-1.6-3h-1.4v3h-1.5V69.2z M90.4,73c0.8,0,1.3-0.5,1.3-1.3c0-0.8-0.3-1.3-1.5-1.3h-1.1V73H90.4z"/>
		<path class="st0" d="M97.6,69.2h4.8v1.3H99v2.1h2.7v1.3H99V76h3.5v1.3h-5V69.2z M100.3,67.1h1.5l-1.2,1.5h-1.2L100.3,67.1z"/>
		<path class="st0" d="M110.5,75.2h-2.8l-0.7,2.1h-1.5l2.8-8.1h1.5l2.8,8.1h-1.5L110.5,75.2z M109.1,70.6c0,0-0.2,0.8-0.3,1.3
			l-0.7,2.2h2.1l-0.7-2.2C109.3,71.4,109.2,70.6,109.1,70.6L109.1,70.6z"/>
		<path class="st0" d="M117.4,70.4h-2.6v-1.3h6.8v1.3h-2.6v6.8h-1.5V70.4z"/>
		<path class="st0" d="M125.1,69.2h4.8v1.3h-3.4v2.1h2.7v1.3h-2.7V76h3.5v1.3h-5V69.2z"/>
		<path class="st0" d="M133.9,69.2h1.5v5.2c0,1.1,0.7,1.7,1.8,1.7c1.1,0,1.8-0.6,1.8-1.7v-5.2h1.5v5.2c0,1.8-1.3,3-3.3,3
			c-2,0-3.3-1.2-3.3-3V69.2z"/>
		<path class="st0" d="M144.8,69.2h2.6c0.9,0,1.3,0.1,1.6,0.2c0.8,0.4,1.3,1.1,1.3,2.2c0,1-0.5,1.9-1.4,2.2v0c0,0,0.1,0.1,0.3,0.4
			l1.7,3h-1.6l-1.6-3h-1.4v3h-1.5V69.2z M147.6,73c0.8,0,1.3-0.5,1.3-1.3c0-0.8-0.3-1.3-1.5-1.3h-1.1V73H147.6z"/>
		<path class="st0" d="M154.9,75.2c0,0,0.9,0.9,2,0.9c0.6,0,1.2-0.3,1.2-1c0-1.4-3.8-1.2-3.8-3.7c0-1.3,1.2-2.3,2.7-2.3
			c1.6,0,2.4,0.9,2.4,0.9l-0.6,1.2c0,0-0.8-0.7-1.8-0.7c-0.7,0-1.2,0.4-1.2,1c0,1.4,3.8,1.1,3.8,3.7c0,1.3-1,2.4-2.7,2.4
			c-1.8,0-2.8-1.1-2.8-1.1L154.9,75.2z"/>
		<path class="st0" d="M168.7,69.2h2.8c2.5,0,4.1,1.5,4.1,4s-1.6,4-4.1,4h-2.8V69.2z M171.4,76c1.6,0,2.7-1,2.7-2.8
			c0-1.8-1.1-2.8-2.7-2.8h-1.2V76H171.4z"/>
		<path class="st0" d="M179.6,69.2h4.8v1.3H181v2.1h2.7v1.3H181V76h3.5v1.3h-5V69.2z"/>
		<path class="st0" d="M193.8,69.2h4.6v1.3h-3.2v2.3h2.7V74h-2.7v3.3h-1.5V69.2z"/>
		<path class="st0" d="M202.1,69.2h1.5v5.2c0,1.1,0.7,1.7,1.8,1.7c1.1,0,1.8-0.6,1.8-1.7v-5.2h1.5v5.2c0,1.8-1.3,3-3.3,3
			c-2,0-3.3-1.2-3.3-3V69.2z"/>
		<path class="st0" d="M214.7,70.4H212v-1.3h6.8v1.3h-2.6v6.8h-1.5V70.4z"/>
		<path class="st0" d="M222.2,69.2h1.5v5.2c0,1.1,0.7,1.7,1.8,1.7c1.1,0,1.8-0.6,1.8-1.7v-5.2h1.5v5.2c0,1.8-1.3,3-3.3,3
			c-2,0-3.3-1.2-3.3-3V69.2z"/>
		<path class="st0" d="M233.1,69.2h2.6c0.9,0,1.3,0.1,1.6,0.2c0.8,0.4,1.3,1.1,1.3,2.2c0,1-0.5,1.9-1.4,2.2v0c0,0,0.1,0.1,0.3,0.4
			l1.7,3h-1.6l-1.6-3h-1.4v3h-1.5V69.2z M235.9,73c0.8,0,1.3-0.5,1.3-1.3c0-0.8-0.3-1.3-1.5-1.3h-1.1V73H235.9z"/>
		<path class="st0" d="M243.2,75.2c0,0,0.9,0.9,2,0.9c0.6,0,1.2-0.3,1.2-1c0-1.4-3.8-1.2-3.8-3.7c0-1.3,1.2-2.3,2.7-2.3
			c1.6,0,2.4,0.9,2.4,0.9l-0.6,1.2c0,0-0.8-0.7-1.8-0.7c-0.7,0-1.2,0.4-1.2,1c0,1.4,3.8,1.1,3.8,3.7c0,1.3-1,2.4-2.7,2.4
			c-1.8,0-2.8-1.1-2.8-1.1L243.2,75.2z"/>
		<path class="st0" d="M77,84h2.8c2.5,0,4.1,1.5,4.1,4s-1.6,4-4.1,4H77V84z M79.7,90.8c1.6,0,2.7-1,2.7-2.8c0-1.8-1.1-2.8-2.7-2.8
			h-1.2v5.5H79.7z"/>
		<path class="st0" d="M87.9,84h4.8v1.3h-3.4v2.1h2.7v1.3h-2.7v2.2h3.5V92h-5V84z"/>
		<path class="st0" d="M96.9,84h3.1c1.5,0,2.6,1.1,2.6,2.6c0,1.6-1.1,2.7-2.6,2.7h-1.6V92h-1.5V84z M99.7,88c0.9,0,1.4-0.5,1.4-1.4
			c0-0.8-0.5-1.4-1.3-1.4h-1.4V88H99.7z"/>
		<path class="st0" d="M106.2,84h1.5v5.2c0,1.1,0.7,1.7,1.8,1.7c1.1,0,1.8-0.6,1.8-1.7V84h1.5v5.2c0,1.8-1.3,3-3.3,3
			c-2,0-3.3-1.2-3.3-3V84z"/>
		<path class="st0" d="M117.1,84h1.5V92h-1.5V84z"/>
		<path class="st0" d="M123.2,90c0,0,0.9,0.9,2,0.9c0.6,0,1.2-0.3,1.2-1c0-1.4-3.8-1.2-3.8-3.7c0-1.3,1.2-2.3,2.7-2.3
			c1.6,0,2.4,0.9,2.4,0.9l-0.6,1.2c0,0-0.8-0.7-1.8-0.7c-0.7,0-1.2,0.4-1.2,1c0,1.4,3.8,1.1,3.8,3.7c0,1.3-1,2.4-2.7,2.4
			c-1.8,0-2.8-1.1-2.8-1.1L123.2,90z"/>
		<path class="st0" d="M136.6,90.8h1.8v-4.5c0-0.3,0-0.5,0-0.5h0c0,0-0.1,0.2-0.4,0.5l-0.6,0.6l-0.9-0.9l2-1.9h1.3v6.8h1.8V92h-4.9
			V90.8z"/>
		<path class="st0" d="M144.8,91.3c0-2.9,3.8-3.4,3.8-5c0-0.7-0.5-1.1-1.2-1.1c-0.9,0-1.5,1-1.5,1l-1.1-0.7c0,0,0.7-1.6,2.7-1.6
			c1.4,0,2.6,0.9,2.6,2.4c0,2.6-3.6,3-3.7,4.6h3.8V92h-5.4C144.8,91.8,144.8,91.5,144.8,91.3z"/>
		<path class="st0" d="M154.5,90c0,0,0.7,0.8,1.7,0.8c0.8,0,1.5-0.5,1.5-1.4c0-0.8-0.7-1.4-1.6-1.4c-0.7,0-1.3,0.3-1.3,0.3l-0.8-0.3
			l0.4-4.1h4.2v1.3h-3l-0.1,1.3c0,0.2-0.1,0.4-0.1,0.4h0c0,0,0.4-0.2,0.9-0.2c1.8,0,2.8,1.2,2.8,2.6c0,1.6-1.2,2.8-2.9,2.8
			c-1.7,0-2.6-1.1-2.6-1.1L154.5,90z"/>
		<path class="st0" d="M166.1,86c0.3-0.5,0.5-0.7,0.5-0.7v0c0,0-0.2,0-0.6,0h-3.4V84h5.5v1l-3.5,7.1h-1.5L166.1,86z"/>
	</g>
</g>
</svg>
